
  <svg width='732px'
       height='246px'
       viewBox='0 0 732 246'
       xmlns='http://www.w3.org/2000/svg'
       xmlns:xlink="http://www.w3.org/1999/xlink">

    <style type='text/css'>
    .keycap .border { stroke: black; stroke-width: 2; }
    .keycap .inner.border { stroke: rgba(0,0,0,.1); }
    </style>
    <defs>
      <linearGradient id="DCS">
        <stop offset="0%" stop-color="black" stop-opacity="0"/>
        <stop offset="40%" stop-color="black" stop-opacity="0.1"/>
        <stop offset="60%" stop-color="black" stop-opacity="0.1"/>
        <stop offset="100%" stop-color="black" stop-opacity="0"/>
      </linearGradient>
      <linearGradient id="SPACE" x1="0%" x2="0%" y1="0%" y2="100%">
        <stop offset="0%" stop-color="black" stop-opacity="0.1"/>
        <stop offset="20%" stop-color="black" stop-opacity="0.0"/>
        <stop offset="40%" stop-color="black" stop-opacity="0.0"/>
        <stop offset="100%" stop-color="black" stop-opacity="0.1"/>
      </linearGradient>
      <radialGradient id="DSA">
        <stop offset="0%" stop-color="black" stop-opacity="0.1"/>
        <stop offset="10%" stop-color="black" stop-opacity="0.1"/>
        <stop offset="100%" stop-color="black" stop-opacity="0"/>
      </radialGradient>
      <radialGradient id="SA" xlink:href="#DSA" />
    </defs>

    <g transform='translate(10,10)'>
      <rect width="712" height="226"
            stroke="#ddd" stroke-width="1" fill="#eeeeee" rx="6"/>
      <g transform='translate(5,5)'>
        
  <g class='  keycap'
  >

  
    <!-- Outer Border -->
    <rect x="1" y="1"
          width="52" height="52"
          rx="5" fill="#9B9381" class="outer border"/>
    
    <!-- Outer Fill -->
    <rect x="1" y="1"
          width="52" height="52"
          rx="5" fill="#9B9381"/>
    

    
      <!-- Inner Border -->
      <rect x="7" y="7"
            width="40" height="40"
            rx="5" fill="#bdb5a2" class="inner border"/>
      
      <!-- Inner Fill -->
      <rect x="7" y="7"
            width="40" height="40"
            rx="5" fill="#bdb5a2"/>
      
      
        
        
        <rect x="7" y="7"
              width="40" height="40"
              rx="5" fill="url(#DSA)"/>
      

     
   
  </g>

  <g class='  keycap'
  >

  
    <!-- Outer Border -->
    <rect x="55" y="1"
          width="52" height="52"
          rx="5" fill="#C7C0B5" class="outer border"/>
    
    <!-- Outer Fill -->
    <rect x="55" y="1"
          width="52" height="52"
          rx="5" fill="#C7C0B5"/>
    

    
      <!-- Inner Border -->
      <rect x="61" y="7"
            width="40" height="40"
            rx="5" fill="#f5ede2" class="inner border"/>
      
      <!-- Inner Fill -->
      <rect x="61" y="7"
            width="40" height="40"
            rx="5" fill="#f5ede2"/>
      
      
        
        
        <rect x="61" y="7"
              width="40" height="40"
              rx="5" fill="url(#DSA)"/>
      

     
   
  </g>

  <g class='  keycap'
  >

  
    <!-- Outer Border -->
    <rect x="109" y="1"
          width="52" height="52"
          rx="5" fill="#C7C0B5" class="outer border"/>
    
    <!-- Outer Fill -->
    <rect x="109" y="1"
          width="52" height="52"
          rx="5" fill="#C7C0B5"/>
    

    
      <!-- Inner Border -->
      <rect x="115" y="7"
            width="40" height="40"
            rx="5" fill="#f5ede2" class="inner border"/>
      
      <!-- Inner Fill -->
      <rect x="115" y="7"
            width="40" height="40"
            rx="5" fill="#f5ede2"/>
      
      
        
        
        <rect x="115" y="7"
              width="40" height="40"
              rx="5" fill="url(#DSA)"/>
      

     
   
  </g>

  <g class='  keycap'
  >

  
    <!-- Outer Border -->
    <rect x="163" y="1"
          width="52" height="52"
          rx="5" fill="#C7C0B5" class="outer border"/>
    
    <!-- Outer Fill -->
    <rect x="163" y="1"
          width="52" height="52"
          rx="5" fill="#C7C0B5"/>
    

    
      <!-- Inner Border -->
      <rect x="169" y="7"
            width="40" height="40"
            rx="5" fill="#f5ede2" class="inner border"/>
      
      <!-- Inner Fill -->
      <rect x="169" y="7"
            width="40" height="40"
            rx="5" fill="#f5ede2"/>
      
      
        
        
        <rect x="169" y="7"
              width="40" height="40"
              rx="5" fill="url(#DSA)"/>
      

     
   
  </g>

  <g class='  keycap'
  >

  
    <!-- Outer Border -->
    <rect x="217" y="1"
          width="52" height="52"
          rx="5" fill="#C7C0B5" class="outer border"/>
    
    <!-- Outer Fill -->
    <rect x="217" y="1"
          width="52" height="52"
          rx="5" fill="#C7C0B5"/>
    

    
      <!-- Inner Border -->
      <rect x="223" y="7"
            width="40" height="40"
            rx="5" fill="#f5ede2" class="inner border"/>
      
      <!-- Inner Fill -->
      <rect x="223" y="7"
            width="40" height="40"
            rx="5" fill="#f5ede2"/>
      
      
        
        
        <rect x="223" y="7"
              width="40" height="40"
              rx="5" fill="url(#DSA)"/>
      

     
   
  </g>

  <g class='  keycap'
  >

  
    <!-- Outer Border -->
    <rect x="271" y="1"
          width="52" height="52"
          rx="5" fill="#C7C0B5" class="outer border"/>
    
    <!-- Outer Fill -->
    <rect x="271" y="1"
          width="52" height="52"
          rx="5" fill="#C7C0B5"/>
    

    
      <!-- Inner Border -->
      <rect x="277" y="7"
            width="40" height="40"
            rx="5" fill="#f5ede2" class="inner border"/>
      
      <!-- Inner Fill -->
      <rect x="277" y="7"
            width="40" height="40"
            rx="5" fill="#f5ede2"/>
      
      
        
        
        <rect x="277" y="7"
              width="40" height="40"
              rx="5" fill="url(#DSA)"/>
      

     
   
  </g>

  <g class='  keycap'
  >

  
    <!-- Outer Border -->
    <rect x="325" y="1"
          width="52" height="52"
          rx="5" fill="#C7C0B5" class="outer border"/>
    
    <!-- Outer Fill -->
    <rect x="325" y="1"
          width="52" height="52"
          rx="5" fill="#C7C0B5"/>
    

    
      <!-- Inner Border -->
      <rect x="331" y="7"
            width="40" height="40"
            rx="5" fill="#f5ede2" class="inner border"/>
      
      <!-- Inner Fill -->
      <rect x="331" y="7"
            width="40" height="40"
            rx="5" fill="#f5ede2"/>
      
      
        
        
        <rect x="331" y="7"
              width="40" height="40"
              rx="5" fill="url(#DSA)"/>
      

     
   
  </g>

  <g class='  keycap'
  >

  
    <!-- Outer Border -->
    <rect x="379" y="1"
          width="52" height="52"
          rx="5" fill="#C7C0B5" class="outer border"/>
    
    <!-- Outer Fill -->
    <rect x="379" y="1"
          width="52" height="52"
          rx="5" fill="#C7C0B5"/>
    

    
      <!-- Inner Border -->
      <rect x="385" y="7"
            width="40" height="40"
            rx="5" fill="#f5ede2" class="inner border"/>
      
      <!-- Inner Fill -->
      <rect x="385" y="7"
            width="40" height="40"
            rx="5" fill="#f5ede2"/>
      
      
        
        
        <rect x="385" y="7"
              width="40" height="40"
              rx="5" fill="url(#DSA)"/>
      

     
   
  </g>

  <g class='  keycap'
  >

  
    <!-- Outer Border -->
    <rect x="433" y="1"
          width="52" height="52"
          rx="5" fill="#C7C0B5" class="outer border"/>
    
    <!-- Outer Fill -->
    <rect x="433" y="1"
          width="52" height="52"
          rx="5" fill="#C7C0B5"/>
    

    
      <!-- Inner Border -->
      <rect x="439" y="7"
            width="40" height="40"
            rx="5" fill="#f5ede2" class="inner border"/>
      
      <!-- Inner Fill -->
      <rect x="439" y="7"
            width="40" height="40"
            rx="5" fill="#f5ede2"/>
      
      
        
        
        <rect x="439" y="7"
              width="40" height="40"
              rx="5" fill="url(#DSA)"/>
      

     
   
  </g>

  <g class='  keycap'
  >

  
    <!-- Outer Border -->
    <rect x="487" y="1"
          width="52" height="52"
          rx="5" fill="#C7C0B5" class="outer border"/>
    
    <!-- Outer Fill -->
    <rect x="487" y="1"
          width="52" height="52"
          rx="5" fill="#C7C0B5"/>
    

    
      <!-- Inner Border -->
      <rect x="493" y="7"
            width="40" height="40"
            rx="5" fill="#f5ede2" class="inner border"/>
      
      <!-- Inner Fill -->
      <rect x="493" y="7"
            width="40" height="40"
            rx="5" fill="#f5ede2"/>
      
      
        
        
        <rect x="493" y="7"
              width="40" height="40"
              rx="5" fill="url(#DSA)"/>
      

     
   
  </g>

  <g class='  keycap'
  >

  
    <!-- Outer Border -->
    <rect x="541" y="1"
          width="52" height="52"
          rx="5" fill="#C7C0B5" class="outer border"/>
    
    <!-- Outer Fill -->
    <rect x="541" y="1"
          width="52" height="52"
          rx="5" fill="#C7C0B5"/>
    

    
      <!-- Inner Border -->
      <rect x="547" y="7"
            width="40" height="40"
            rx="5" fill="#f5ede2" class="inner border"/>
      
      <!-- Inner Fill -->
      <rect x="547" y="7"
            width="40" height="40"
            rx="5" fill="#f5ede2"/>
      
      
        
        
        <rect x="547" y="7"
              width="40" height="40"
              rx="5" fill="url(#DSA)"/>
      

     
   
  </g>

  <g class='  keycap'
  >

  
    <!-- Outer Border -->
    <rect x="595" y="1"
          width="52" height="52"
          rx="5" fill="#9B9381" class="outer border"/>
    
    <!-- Outer Fill -->
    <rect x="595" y="1"
          width="52" height="52"
          rx="5" fill="#9B9381"/>
    

    
      <!-- Inner Border -->
      <rect x="601" y="7"
            width="40" height="40"
            rx="5" fill="#bdb5a2" class="inner border"/>
      
      <!-- Inner Fill -->
      <rect x="601" y="7"
            width="40" height="40"
            rx="5" fill="#bdb5a2"/>
      
      
        
        
        <rect x="601" y="7"
              width="40" height="40"
              rx="5" fill="url(#DSA)"/>
      

     
   
  </g>

  <g class='  keycap'
  >

  
    <!-- Outer Border -->
    <rect x="649" y="1"
          width="52" height="52"
          rx="5" fill="#9B9381" class="outer border"/>
    
    <!-- Outer Fill -->
    <rect x="649" y="1"
          width="52" height="52"
          rx="5" fill="#9B9381"/>
    

    
      <!-- Inner Border -->
      <rect x="655" y="7"
            width="40" height="40"
            rx="5" fill="#bdb5a2" class="inner border"/>
      
      <!-- Inner Fill -->
      <rect x="655" y="7"
            width="40" height="40"
            rx="5" fill="#bdb5a2"/>
      
      
        
        
        <rect x="655" y="7"
              width="40" height="40"
              rx="5" fill="url(#DSA)"/>
      

     
   
  </g>

  <g class='  keycap'
  >

  
    <!-- Outer Border -->
    <rect x="1" y="55"
          width="65.5" height="52"
          rx="5" fill="#9B9381" class="outer border"/>
    
    <!-- Outer Fill -->
    <rect x="1" y="55"
          width="65.5" height="52"
          rx="5" fill="#9B9381"/>
    

    
      <!-- Inner Border -->
      <rect x="7" y="61"
            width="53.5" height="40"
            rx="5" fill="#bdb5a2" class="inner border"/>
      
      <!-- Inner Fill -->
      <rect x="7" y="61"
            width="53.5" height="40"
            rx="5" fill="#bdb5a2"/>
      
      
        
        
        <rect x="7" y="61"
              width="53.5" height="40"
              rx="5" fill="url(#DSA)"/>
      

     
   
  </g>

  <g class='  keycap'
  >

  
    <!-- Outer Border -->
    <rect x="68.5" y="55"
          width="52" height="52"
          rx="5" fill="#C7C0B5" class="outer border"/>
    
    <!-- Outer Fill -->
    <rect x="68.5" y="55"
          width="52" height="52"
          rx="5" fill="#C7C0B5"/>
    

    
      <!-- Inner Border -->
      <rect x="74.5" y="61"
            width="40" height="40"
            rx="5" fill="#f5ede2" class="inner border"/>
      
      <!-- Inner Fill -->
      <rect x="74.5" y="61"
            width="40" height="40"
            rx="5" fill="#f5ede2"/>
      
      
        
        
        <rect x="74.5" y="61"
              width="40" height="40"
              rx="5" fill="url(#DSA)"/>
      

     
   
  </g>

  <g class='  keycap'
  >

  
    <!-- Outer Border -->
    <rect x="122.5" y="55"
          width="52" height="52"
          rx="5" fill="#C7C0B5" class="outer border"/>
    
    <!-- Outer Fill -->
    <rect x="122.5" y="55"
          width="52" height="52"
          rx="5" fill="#C7C0B5"/>
    

    
      <!-- Inner Border -->
      <rect x="128.5" y="61"
            width="40" height="40"
            rx="5" fill="#f5ede2" class="inner border"/>
      
      <!-- Inner Fill -->
      <rect x="128.5" y="61"
            width="40" height="40"
            rx="5" fill="#f5ede2"/>
      
      
        
        
        <rect x="128.5" y="61"
              width="40" height="40"
              rx="5" fill="url(#DSA)"/>
      

     
   
  </g>

  <g class='  keycap'
  >

  
    <!-- Outer Border -->
    <rect x="176.5" y="55"
          width="52" height="52"
          rx="5" fill="#C7C0B5" class="outer border"/>
    
    <!-- Outer Fill -->
    <rect x="176.5" y="55"
          width="52" height="52"
          rx="5" fill="#C7C0B5"/>
    

    
      <!-- Inner Border -->
      <rect x="182.5" y="61"
            width="40" height="40"
            rx="5" fill="#f5ede2" class="inner border"/>
      
      <!-- Inner Fill -->
      <rect x="182.5" y="61"
            width="40" height="40"
            rx="5" fill="#f5ede2"/>
      
      
        
        
        <rect x="182.5" y="61"
              width="40" height="40"
              rx="5" fill="url(#DSA)"/>
      

     
   
  </g>

  <g class='  keycap'
  >

  
    <!-- Outer Border -->
    <rect x="230.5" y="55"
          width="52" height="52"
          rx="5" fill="#C7C0B5" class="outer border"/>
    
    <!-- Outer Fill -->
    <rect x="230.5" y="55"
          width="52" height="52"
          rx="5" fill="#C7C0B5"/>
    

    
      <!-- Inner Border -->
      <rect x="236.5" y="61"
            width="40" height="40"
            rx="5" fill="#f5ede2" class="inner border"/>
      
      <!-- Inner Fill -->
      <rect x="236.5" y="61"
            width="40" height="40"
            rx="5" fill="#f5ede2"/>
      
      
        
        
        <rect x="236.5" y="61"
              width="40" height="40"
              rx="5" fill="url(#DSA)"/>
      

     
   
  </g>

  <g class='  keycap'
  >

  
    <!-- Outer Border -->
    <rect x="284.5" y="55"
          width="52" height="52"
          rx="5" fill="#C7C0B5" class="outer border"/>
    
    <!-- Outer Fill -->
    <rect x="284.5" y="55"
          width="52" height="52"
          rx="5" fill="#C7C0B5"/>
    

    
      <!-- Inner Border -->
      <rect x="290.5" y="61"
            width="40" height="40"
            rx="5" fill="#f5ede2" class="inner border"/>
      
      <!-- Inner Fill -->
      <rect x="290.5" y="61"
            width="40" height="40"
            rx="5" fill="#f5ede2"/>
      
      
        
        
        <rect x="290.5" y="61"
              width="40" height="40"
              rx="5" fill="url(#DSA)"/>
      

     
   
  </g>

  <g class='  keycap'
  >

  
    <!-- Outer Border -->
    <rect x="338.5" y="55"
          width="52" height="52"
          rx="5" fill="#C7C0B5" class="outer border"/>
    
    <!-- Outer Fill -->
    <rect x="338.5" y="55"
          width="52" height="52"
          rx="5" fill="#C7C0B5"/>
    

    
      <!-- Inner Border -->
      <rect x="344.5" y="61"
            width="40" height="40"
            rx="5" fill="#f5ede2" class="inner border"/>
      
      <!-- Inner Fill -->
      <rect x="344.5" y="61"
            width="40" height="40"
            rx="5" fill="#f5ede2"/>
      
      
        
        
        <rect x="344.5" y="61"
              width="40" height="40"
              rx="5" fill="url(#DSA)"/>
      

     
   
  </g>

  <g class='  keycap'
  >

  
    <!-- Outer Border -->
    <rect x="392.5" y="55"
          width="52" height="52"
          rx="5" fill="#C7C0B5" class="outer border"/>
    
    <!-- Outer Fill -->
    <rect x="392.5" y="55"
          width="52" height="52"
          rx="5" fill="#C7C0B5"/>
    

    
      <!-- Inner Border -->
      <rect x="398.5" y="61"
            width="40" height="40"
            rx="5" fill="#f5ede2" class="inner border"/>
      
      <!-- Inner Fill -->
      <rect x="398.5" y="61"
            width="40" height="40"
            rx="5" fill="#f5ede2"/>
      
      
        
        
        <rect x="398.5" y="61"
              width="40" height="40"
              rx="5" fill="url(#DSA)"/>
      

     
   
  </g>

  <g class='  keycap'
  >

  
    <!-- Outer Border -->
    <rect x="446.5" y="55"
          width="52" height="52"
          rx="5" fill="#C7C0B5" class="outer border"/>
    
    <!-- Outer Fill -->
    <rect x="446.5" y="55"
          width="52" height="52"
          rx="5" fill="#C7C0B5"/>
    

    
      <!-- Inner Border -->
      <rect x="452.5" y="61"
            width="40" height="40"
            rx="5" fill="#f5ede2" class="inner border"/>
      
      <!-- Inner Fill -->
      <rect x="452.5" y="61"
            width="40" height="40"
            rx="5" fill="#f5ede2"/>
      
      
        
        
        <rect x="452.5" y="61"
              width="40" height="40"
              rx="5" fill="url(#DSA)"/>
      

     
   
  </g>

  <g class='  keycap'
  >

  
    <!-- Outer Border -->
    <rect x="500.5" y="55"
          width="52" height="52"
          rx="5" fill="#C7C0B5" class="outer border"/>
    
    <!-- Outer Fill -->
    <rect x="500.5" y="55"
          width="52" height="52"
          rx="5" fill="#C7C0B5"/>
    

    
      <!-- Inner Border -->
      <rect x="506.5" y="61"
            width="40" height="40"
            rx="5" fill="#f5ede2" class="inner border"/>
      
      <!-- Inner Fill -->
      <rect x="506.5" y="61"
            width="40" height="40"
            rx="5" fill="#f5ede2"/>
      
      
        
        
        <rect x="506.5" y="61"
              width="40" height="40"
              rx="5" fill="url(#DSA)"/>
      

     
   
  </g>

  <g class='  keycap'
  >

  
    <!-- Outer Border -->
    <rect x="554.5" y="55"
          width="52" height="52"
          rx="5" fill="#C7C0B5" class="outer border"/>
    
    <!-- Outer Fill -->
    <rect x="554.5" y="55"
          width="52" height="52"
          rx="5" fill="#C7C0B5"/>
    

    
      <!-- Inner Border -->
      <rect x="560.5" y="61"
            width="40" height="40"
            rx="5" fill="#f5ede2" class="inner border"/>
      
      <!-- Inner Fill -->
      <rect x="560.5" y="61"
            width="40" height="40"
            rx="5" fill="#f5ede2"/>
      
      
        
        
        <rect x="560.5" y="61"
              width="40" height="40"
              rx="5" fill="url(#DSA)"/>
      

     
   
  </g>

  <g class='  keycap'
  >

  
    <!-- Outer Border -->
    <rect x="608.5" y="55"
          width="92.5" height="52"
          rx="5" fill="#9B9381" class="outer border"/>
    
    <!-- Outer Fill -->
    <rect x="608.5" y="55"
          width="92.5" height="52"
          rx="5" fill="#9B9381"/>
    

    
      <!-- Inner Border -->
      <rect x="614.5" y="61"
            width="80.5" height="40"
            rx="5" fill="#bdb5a2" class="inner border"/>
      
      <!-- Inner Fill -->
      <rect x="614.5" y="61"
            width="80.5" height="40"
            rx="5" fill="#bdb5a2"/>
      
      
        
        
        <rect x="614.5" y="61"
              width="80.5" height="40"
              rx="5" fill="url(#DSA)"/>
      

     
   
  </g>

  <g class='  keycap'
  >

  
    <!-- Outer Border -->
    <rect x="1" y="109"
          width="92.5" height="52"
          rx="5" fill="#9B9381" class="outer border"/>
    
    <!-- Outer Fill -->
    <rect x="1" y="109"
          width="92.5" height="52"
          rx="5" fill="#9B9381"/>
    

    
      <!-- Inner Border -->
      <rect x="7" y="115"
            width="80.5" height="40"
            rx="5" fill="#bdb5a2" class="inner border"/>
      
      <!-- Inner Fill -->
      <rect x="7" y="115"
            width="80.5" height="40"
            rx="5" fill="#bdb5a2"/>
      
      
        
        
        <rect x="7" y="115"
              width="80.5" height="40"
              rx="5" fill="url(#DSA)"/>
      

     
   
  </g>

  <g class='  keycap'
  >

  
    <!-- Outer Border -->
    <rect x="95.5" y="109"
          width="52" height="52"
          rx="5" fill="#C7C0B5" class="outer border"/>
    
    <!-- Outer Fill -->
    <rect x="95.5" y="109"
          width="52" height="52"
          rx="5" fill="#C7C0B5"/>
    

    
      <!-- Inner Border -->
      <rect x="101.5" y="115"
            width="40" height="40"
            rx="5" fill="#f5ede2" class="inner border"/>
      
      <!-- Inner Fill -->
      <rect x="101.5" y="115"
            width="40" height="40"
            rx="5" fill="#f5ede2"/>
      
      
        
        
        <rect x="101.5" y="115"
              width="40" height="40"
              rx="5" fill="url(#DSA)"/>
      

     
   
  </g>

  <g class='  keycap'
  >

  
    <!-- Outer Border -->
    <rect x="149.5" y="109"
          width="52" height="52"
          rx="5" fill="#C7C0B5" class="outer border"/>
    
    <!-- Outer Fill -->
    <rect x="149.5" y="109"
          width="52" height="52"
          rx="5" fill="#C7C0B5"/>
    

    
      <!-- Inner Border -->
      <rect x="155.5" y="115"
            width="40" height="40"
            rx="5" fill="#f5ede2" class="inner border"/>
      
      <!-- Inner Fill -->
      <rect x="155.5" y="115"
            width="40" height="40"
            rx="5" fill="#f5ede2"/>
      
      
        
        
        <rect x="155.5" y="115"
              width="40" height="40"
              rx="5" fill="url(#DSA)"/>
      

     
   
  </g>

  <g class='  keycap'
  >

  
    <!-- Outer Border -->
    <rect x="203.5" y="109"
          width="52" height="52"
          rx="5" fill="#C7C0B5" class="outer border"/>
    
    <!-- Outer Fill -->
    <rect x="203.5" y="109"
          width="52" height="52"
          rx="5" fill="#C7C0B5"/>
    

    
      <!-- Inner Border -->
      <rect x="209.5" y="115"
            width="40" height="40"
            rx="5" fill="#f5ede2" class="inner border"/>
      
      <!-- Inner Fill -->
      <rect x="209.5" y="115"
            width="40" height="40"
            rx="5" fill="#f5ede2"/>
      
      
        
        
        <rect x="209.5" y="115"
              width="40" height="40"
              rx="5" fill="url(#DSA)"/>
      

     
   
  </g>

  <g class='  keycap'
  >

  
    <!-- Outer Border -->
    <rect x="257.5" y="109"
          width="52" height="52"
          rx="5" fill="#C7C0B5" class="outer border"/>
    
    <!-- Outer Fill -->
    <rect x="257.5" y="109"
          width="52" height="52"
          rx="5" fill="#C7C0B5"/>
    

    
      <!-- Inner Border -->
      <rect x="263.5" y="115"
            width="40" height="40"
            rx="5" fill="#f5ede2" class="inner border"/>
      
      <!-- Inner Fill -->
      <rect x="263.5" y="115"
            width="40" height="40"
            rx="5" fill="#f5ede2"/>
      
      
        
        
        <rect x="263.5" y="115"
              width="40" height="40"
              rx="5" fill="url(#DSA)"/>
      

     
   
  </g>

  <g class='  keycap'
  >

  
    <!-- Outer Border -->
    <rect x="311.5" y="109"
          width="52" height="52"
          rx="5" fill="#C7C0B5" class="outer border"/>
    
    <!-- Outer Fill -->
    <rect x="311.5" y="109"
          width="52" height="52"
          rx="5" fill="#C7C0B5"/>
    

    
      <!-- Inner Border -->
      <rect x="317.5" y="115"
            width="40" height="40"
            rx="5" fill="#f5ede2" class="inner border"/>
      
      <!-- Inner Fill -->
      <rect x="317.5" y="115"
            width="40" height="40"
            rx="5" fill="#f5ede2"/>
      
      
        
        
        <rect x="317.5" y="115"
              width="40" height="40"
              rx="5" fill="url(#DSA)"/>
      

     
   
  </g>

  <g class='  keycap'
  >

  
    <!-- Outer Border -->
    <rect x="365.5" y="109"
          width="52" height="52"
          rx="5" fill="#C7C0B5" class="outer border"/>
    
    <!-- Outer Fill -->
    <rect x="365.5" y="109"
          width="52" height="52"
          rx="5" fill="#C7C0B5"/>
    

    
      <!-- Inner Border -->
      <rect x="371.5" y="115"
            width="40" height="40"
            rx="5" fill="#f5ede2" class="inner border"/>
      
      <!-- Inner Fill -->
      <rect x="371.5" y="115"
            width="40" height="40"
            rx="5" fill="#f5ede2"/>
      
      
        
        
        <rect x="371.5" y="115"
              width="40" height="40"
              rx="5" fill="url(#DSA)"/>
      

     
   
  </g>

  <g class='  keycap'
  >

  
    <!-- Outer Border -->
    <rect x="419.5" y="109"
          width="52" height="52"
          rx="5" fill="#C7C0B5" class="outer border"/>
    
    <!-- Outer Fill -->
    <rect x="419.5" y="109"
          width="52" height="52"
          rx="5" fill="#C7C0B5"/>
    

    
      <!-- Inner Border -->
      <rect x="425.5" y="115"
            width="40" height="40"
            rx="5" fill="#f5ede2" class="inner border"/>
      
      <!-- Inner Fill -->
      <rect x="425.5" y="115"
            width="40" height="40"
            rx="5" fill="#f5ede2"/>
      
      
        
        
        <rect x="425.5" y="115"
              width="40" height="40"
              rx="5" fill="url(#DSA)"/>
      

     
   
  </g>

  <g class='  keycap'
  >

  
    <!-- Outer Border -->
    <rect x="473.5" y="109"
          width="52" height="52"
          rx="5" fill="#C7C0B5" class="outer border"/>
    
    <!-- Outer Fill -->
    <rect x="473.5" y="109"
          width="52" height="52"
          rx="5" fill="#C7C0B5"/>
    

    
      <!-- Inner Border -->
      <rect x="479.5" y="115"
            width="40" height="40"
            rx="5" fill="#f5ede2" class="inner border"/>
      
      <!-- Inner Fill -->
      <rect x="479.5" y="115"
            width="40" height="40"
            rx="5" fill="#f5ede2"/>
      
      
        
        
        <rect x="479.5" y="115"
              width="40" height="40"
              rx="5" fill="url(#DSA)"/>
      

     
   
  </g>

  <g class='  keycap'
  >

  
    <!-- Outer Border -->
    <rect x="527.5" y="109"
          width="52" height="52"
          rx="5" fill="#C7C0B5" class="outer border"/>
    
    <!-- Outer Fill -->
    <rect x="527.5" y="109"
          width="52" height="52"
          rx="5" fill="#C7C0B5"/>
    

    
      <!-- Inner Border -->
      <rect x="533.5" y="115"
            width="40" height="40"
            rx="5" fill="#f5ede2" class="inner border"/>
      
      <!-- Inner Fill -->
      <rect x="533.5" y="115"
            width="40" height="40"
            rx="5" fill="#f5ede2"/>
      
      
        
        
        <rect x="533.5" y="115"
              width="40" height="40"
              rx="5" fill="url(#DSA)"/>
      

     
   
  </g>

  <g class='  keycap'
  >

  
    <!-- Outer Border -->
    <rect x="581.5" y="109"
          width="65.5" height="52"
          rx="5" fill="#9B9381" class="outer border"/>
    
    <!-- Outer Fill -->
    <rect x="581.5" y="109"
          width="65.5" height="52"
          rx="5" fill="#9B9381"/>
    

    
      <!-- Inner Border -->
      <rect x="587.5" y="115"
            width="53.5" height="40"
            rx="5" fill="#bdb5a2" class="inner border"/>
      
      <!-- Inner Fill -->
      <rect x="587.5" y="115"
            width="53.5" height="40"
            rx="5" fill="#bdb5a2"/>
      
      
        
        
        <rect x="587.5" y="115"
              width="53.5" height="40"
              rx="5" fill="url(#DSA)"/>
      

     
   
  </g>

  <g class='  keycap'
  >

  
    <!-- Outer Border -->
    <rect x="649" y="109"
          width="52" height="52"
          rx="5" fill="#9B9381" class="outer border"/>
    
    <!-- Outer Fill -->
    <rect x="649" y="109"
          width="52" height="52"
          rx="5" fill="#9B9381"/>
    

    
      <!-- Inner Border -->
      <rect x="655" y="115"
            width="40" height="40"
            rx="5" fill="#bdb5a2" class="inner border"/>
      
      <!-- Inner Fill -->
      <rect x="655" y="115"
            width="40" height="40"
            rx="5" fill="#bdb5a2"/>
      
      
        
        
        <rect x="655" y="115"
              width="40" height="40"
              rx="5" fill="url(#DSA)"/>
      

     
   
  </g>

  <g class='  keycap'
  >

  
    <!-- Outer Border -->
    <rect x="649" y="109"
          width="52" height="52"
          rx="5" fill="#9B9381" class="outer border"/>
    
    <!-- Outer Fill -->
    <rect x="649" y="109"
          width="52" height="52"
          rx="5" fill="#9B9381"/>
    

    
      <!-- Inner Border -->
      <rect x="655" y="115"
            width="40" height="40"
            rx="5" fill="#bdb5a2" class="inner border"/>
      
      <!-- Inner Fill -->
      <rect x="655" y="115"
            width="40" height="40"
            rx="5" fill="#bdb5a2"/>
      
      
        
        
        <rect x="655" y="115"
              width="40" height="40"
              rx="5" fill="url(#DSA)"/>
      

     
   
  </g>

  <g class='  keycap'
  >

  
    <!-- Outer Border -->
    <rect x="1" y="163"
          width="65.5" height="52"
          rx="5" fill="#9B9381" class="outer border"/>
    
    <!-- Outer Fill -->
    <rect x="1" y="163"
          width="65.5" height="52"
          rx="5" fill="#9B9381"/>
    

    
      <!-- Inner Border -->
      <rect x="7" y="169"
            width="53.5" height="40"
            rx="5" fill="#bdb5a2" class="inner border"/>
      
      <!-- Inner Fill -->
      <rect x="7" y="169"
            width="53.5" height="40"
            rx="5" fill="#bdb5a2"/>
      
      
        
        
        <rect x="7" y="169"
              width="53.5" height="40"
              rx="5" fill="url(#DSA)"/>
      

     
   
  </g>

  <g class='  keycap'
  >

  
    <!-- Outer Border -->
    <rect x="68.5" y="163"
          width="52" height="52"
          rx="5" fill="#9B9381" class="outer border"/>
    
    <!-- Outer Fill -->
    <rect x="68.5" y="163"
          width="52" height="52"
          rx="5" fill="#9B9381"/>
    

    
      <!-- Inner Border -->
      <rect x="74.5" y="169"
            width="40" height="40"
            rx="5" fill="#bdb5a2" class="inner border"/>
      
      <!-- Inner Fill -->
      <rect x="74.5" y="169"
            width="40" height="40"
            rx="5" fill="#bdb5a2"/>
      
      
        
        
        <rect x="74.5" y="169"
              width="40" height="40"
              rx="5" fill="url(#DSA)"/>
      

     
   
  </g>

  <g class='  keycap'
  >

  
    <!-- Outer Border -->
    <rect x="122.5" y="163"
          width="52" height="52"
          rx="5" fill="#9B9381" class="outer border"/>
    
    <!-- Outer Fill -->
    <rect x="122.5" y="163"
          width="52" height="52"
          rx="5" fill="#9B9381"/>
    

    
      <!-- Inner Border -->
      <rect x="128.5" y="169"
            width="40" height="40"
            rx="5" fill="#bdb5a2" class="inner border"/>
      
      <!-- Inner Fill -->
      <rect x="128.5" y="169"
            width="40" height="40"
            rx="5" fill="#bdb5a2"/>
      
      
        
        
        <rect x="128.5" y="169"
              width="40" height="40"
              rx="5" fill="url(#DSA)"/>
      

     
   
  </g>

  <g class='  keycap'
  >

  
    <!-- Outer Border -->
    <rect x="176.5" y="163"
          width="52" height="52"
          rx="5" fill="#9B9381" class="outer border"/>
    
    <!-- Outer Fill -->
    <rect x="176.5" y="163"
          width="52" height="52"
          rx="5" fill="#9B9381"/>
    

    
      <!-- Inner Border -->
      <rect x="182.5" y="169"
            width="40" height="40"
            rx="5" fill="#bdb5a2" class="inner border"/>
      
      <!-- Inner Fill -->
      <rect x="182.5" y="169"
            width="40" height="40"
            rx="5" fill="#bdb5a2"/>
      
      
        
        
        <rect x="182.5" y="169"
              width="40" height="40"
              rx="5" fill="url(#DSA)"/>
      

     
   
  </g>

  <g class='  keycap'
  >

  
    <!-- Outer Border -->
    <rect x="230.5" y="163"
          width="92.5" height="52"
          rx="5" fill="#9B9381" class="outer border"/>
    
    <!-- Outer Fill -->
    <rect x="230.5" y="163"
          width="92.5" height="52"
          rx="5" fill="#9B9381"/>
    

    
      <!-- Inner Border -->
      <rect x="236.5" y="169"
            width="80.5" height="40"
            rx="5" fill="#bdb5a2" class="inner border"/>
      
      <!-- Inner Fill -->
      <rect x="236.5" y="169"
            width="80.5" height="40"
            rx="5" fill="#bdb5a2"/>
      
      
        
        
        <rect x="236.5" y="169"
              width="80.5" height="40"
              rx="5" fill="url(#DSA)"/>
      

     
   
  </g>

  <g class='  keycap'
  >

  
    <!-- Outer Border -->
    <rect x="325" y="163"
          width="146.5" height="52"
          rx="5" fill="#9B9381" class="outer border"/>
    
    <!-- Outer Fill -->
    <rect x="325" y="163"
          width="146.5" height="52"
          rx="5" fill="#9B9381"/>
    

    
      <!-- Inner Border -->
      <rect x="331" y="169"
            width="134.5" height="40"
            rx="5" fill="#bdb5a2" class="inner border"/>
      
      <!-- Inner Fill -->
      <rect x="331" y="169"
            width="134.5" height="40"
            rx="5" fill="#bdb5a2"/>
      
      
        
        
        <rect x="331" y="169"
              width="134.5" height="40"
              rx="5" fill="url(#DSA)"/>
      

     
   
  </g>

  <g class='  keycap'
  >

  
    <!-- Outer Border -->
    <rect x="473.5" y="163"
          width="52" height="52"
          rx="5" fill="#9B9381" class="outer border"/>
    
    <!-- Outer Fill -->
    <rect x="473.5" y="163"
          width="52" height="52"
          rx="5" fill="#9B9381"/>
    

    
      <!-- Inner Border -->
      <rect x="479.5" y="169"
            width="40" height="40"
            rx="5" fill="#bdb5a2" class="inner border"/>
      
      <!-- Inner Fill -->
      <rect x="479.5" y="169"
            width="40" height="40"
            rx="5" fill="#bdb5a2"/>
      
      
        
        
        <rect x="479.5" y="169"
              width="40" height="40"
              rx="5" fill="url(#DSA)"/>
      

     
   
  </g>

  <g class='  keycap'
  >

  
    <!-- Outer Border -->
    <rect x="527.5" y="163"
          width="52" height="52"
          rx="5" fill="#9B9381" class="outer border"/>
    
    <!-- Outer Fill -->
    <rect x="527.5" y="163"
          width="52" height="52"
          rx="5" fill="#9B9381"/>
    

    
      <!-- Inner Border -->
      <rect x="533.5" y="169"
            width="40" height="40"
            rx="5" fill="#bdb5a2" class="inner border"/>
      
      <!-- Inner Fill -->
      <rect x="533.5" y="169"
            width="40" height="40"
            rx="5" fill="#bdb5a2"/>
      
      
        
        
        <rect x="533.5" y="169"
              width="40" height="40"
              rx="5" fill="url(#DSA)"/>
      

     
   
  </g>

  <g class='  keycap'
  >

  
    <!-- Outer Border -->
    <rect x="581.5" y="163"
          width="52" height="52"
          rx="5" fill="#9B9381" class="outer border"/>
    
    <!-- Outer Fill -->
    <rect x="581.5" y="163"
          width="52" height="52"
          rx="5" fill="#9B9381"/>
    

    
      <!-- Inner Border -->
      <rect x="587.5" y="169"
            width="40" height="40"
            rx="5" fill="#bdb5a2" class="inner border"/>
      
      <!-- Inner Fill -->
      <rect x="587.5" y="169"
            width="40" height="40"
            rx="5" fill="#bdb5a2"/>
      
      
        
        
        <rect x="587.5" y="169"
              width="40" height="40"
              rx="5" fill="url(#DSA)"/>
      

     
   
  </g>

  <g class='  keycap'
  >

  
    <!-- Outer Border -->
    <rect x="635.5" y="163"
          width="65.5" height="52"
          rx="5" fill="#9B9381" class="outer border"/>
    
    <!-- Outer Fill -->
    <rect x="635.5" y="163"
          width="65.5" height="52"
          rx="5" fill="#9B9381"/>
    

    
      <!-- Inner Border -->
      <rect x="641.5" y="169"
            width="53.5" height="40"
            rx="5" fill="#bdb5a2" class="inner border"/>
      
      <!-- Inner Fill -->
      <rect x="641.5" y="169"
            width="53.5" height="40"
            rx="5" fill="#bdb5a2"/>
      
      
        
        
        <rect x="641.5" y="169"
              width="53.5" height="40"
              rx="5" fill="url(#DSA)"/>
      

     
   
  </g>

      </g>
    </g>
  </svg>
